<svg width="22" height="26" viewBox="0 0 22 26" fill="none" xmlns="http://www.w3.org/2000/svg">
<path d="M10.7688 7.896C9.2469 7.896 8.00879 9.13415 8.00879 10.656C8.00879 12.1778 9.2469 13.416 10.7688 13.416C12.2907 13.416 13.5288 12.1778 13.5288 10.656C13.5288 9.13415 12.2906 7.896 10.7688 7.896Z" fill="#1C1C1C"/>
<path d="M3.70942 3.66284L3.70943 3.66284C5.5975 1.72944 8.10287 0.667969 10.7678 0.667969C13.4328 0.667969 15.9381 1.72944 17.8262 3.66284C19.7147 5.5967 20.7558 8.16773 20.7558 10.9075C20.7558 13.6547 19.4858 16.2068 17.8173 18.4219C16.1506 20.6345 14.1259 22.4599 12.6838 23.7589L12.6838 23.7589L12.6768 23.7652C12.2816 24.1213 11.9323 24.4359 11.6522 24.7038C11.4034 24.9418 11.0858 25.06 10.7678 25.06C10.4497 25.06 10.1322 24.9419 9.88344 24.7038L9.88339 24.7038C9.60406 24.4366 9.25588 24.1229 8.86207 23.7681L8.85182 23.7589L8.8518 23.7589C7.40967 22.4599 5.38496 20.6345 3.71829 18.4218C2.04977 16.2067 0.779785 13.6547 0.779785 10.9074C0.779785 8.16773 1.82085 5.5967 3.70942 3.66284ZM5.64591 10.5017C5.64591 13.3762 7.93201 15.7344 10.7678 15.7344C13.6036 15.7344 15.8897 13.3763 15.8897 10.5017C15.8897 7.62709 13.6036 5.26894 10.7678 5.26894C7.93201 5.26894 5.64591 7.62709 5.64591 10.5017Z" fill="#F4941C" stroke="black"/>
</svg>
