<svg width="38" height="38" viewBox="0 0 38 38" fill="none" xmlns="http://www.w3.org/2000/svg">
<rect width="38" height="38" rx="12" transform="matrix(-1 0 0 1 38 0)" fill="#F4941C"/>
<g clip-path="url(#clip0_699_4420)">
<path d="M23.0913 19.4043C23.0913 19.6361 23.0027 19.8679 22.8261 20.0447L17.2638 25.6069C16.9099 25.9608 16.3362 25.9608 15.9826 25.6069C15.6289 25.2533 15.6289 24.6797 15.9826 24.3258L20.9044 19.4043L15.9827 14.4827C15.629 14.1288 15.629 13.5553 15.9827 13.2017C16.3364 12.8477 16.9101 12.8477 17.2639 13.2017L22.8262 18.7639C23.0029 18.9407 23.0913 19.1725 23.0913 19.4043Z" fill="white"/>
</g>
<defs>
<clipPath id="clip0_699_4420">
<rect width="12.9362" height="12.9362" fill="white" transform="translate(12.936 25.8723) rotate(-90)"/>
</clipPath>
</defs>
</svg>
