<svg width="25" height="24" viewBox="0 0 25 24" fill="none" xmlns="http://www.w3.org/2000/svg">
<g clip-path="url(#clip0_699_1180)">
<path d="M22.7676 10.2406C22.6727 10.2252 22.5767 10.218 22.4806 10.2193H6.11838L6.47516 10.0533C6.8239 9.88828 7.14117 9.66364 7.41275 9.38957L12.0011 4.80119C12.6054 4.22432 12.707 3.29633 12.2417 2.60242C11.7003 1.86298 10.662 1.70243 9.92246 2.24387C9.86272 2.28764 9.80593 2.33535 9.75257 2.38669L1.45533 10.6839C0.806897 11.3316 0.806326 12.3823 1.45403 13.0308C1.45444 13.0312 1.45491 13.0316 1.45533 13.0321L9.75257 21.3293C10.4015 21.9764 11.4522 21.975 12.0994 21.326C12.1503 21.275 12.1979 21.2206 12.2417 21.1634C12.707 20.4695 12.6054 19.5415 12.0011 18.9646L7.42105 14.3679C7.17757 14.1242 6.89765 13.9198 6.59132 13.7622L6.09349 13.5382H22.3893C23.237 13.5697 23.9807 12.9775 24.14 12.1443C24.2867 11.2396 23.6723 10.3873 22.7676 10.2406Z" fill="#221F59"/>
</g>
<defs>
<clipPath id="clip0_699_1180">
<rect width="23.193" height="23.193" fill="white" transform="translate(0.968384 0.272156)"/>
</clipPath>
</defs>
</svg>
