<svg width="22" height="22" viewBox="0 0 22 22" fill="none" xmlns="http://www.w3.org/2000/svg">
<path d="M10.2227 10.1743H3.10188C2.10827 10.1743 1.28027 9.34634 1.28027 8.35274V3.05354C1.28027 2.05993 2.10827 1.23193 3.10188 1.23193H8.40108C9.39468 1.23193 10.2227 2.05993 10.2227 3.05354V10.1743Z" fill="#F4941C" stroke="#1C1C1C"/>
<path d="M12.2095 10.1743V3.05354C12.2095 2.05993 13.0375 1.23193 14.0311 1.23193H19.3303C20.3239 1.23193 21.1519 2.05993 21.1519 3.05354V8.35274C21.1519 9.34634 20.3239 10.1743 19.3303 10.1743H12.2095Z" fill="#F4941C" stroke="#1C1C1C"/>
<path d="M12.2095 12.1616H19.3303C20.3239 12.1616 21.1519 12.9896 21.1519 13.9832V19.2824C21.1519 20.276 20.3239 21.104 19.3303 21.104H14.0311C13.0375 21.104 12.2095 20.276 12.2095 19.2824V12.1616Z" fill="#F4941C" stroke="#1C1C1C"/>
<path d="M10.2227 12.1616V19.2824C10.2227 20.276 9.39468 21.104 8.40108 21.104H3.10188C2.10827 21.104 1.28027 20.276 1.28027 19.2824V13.9832C1.28027 12.9896 2.10827 12.1616 3.10188 12.1616H10.2227Z" fill="#F4941C" stroke="#1C1C1C"/>
</svg>
