<svg width="41" height="35" viewBox="0 0 41 35" fill="none" xmlns="http://www.w3.org/2000/svg">
<rect x="5.44446" width="35" height="35" rx="5" fill="#F7F7F7"/>
<path d="M20.4344 24.9243C20.8249 24.9243 21.1414 24.6077 21.1414 24.2172C21.1414 23.8267 20.8249 23.5101 20.4344 23.5101C20.0439 23.5101 19.7273 23.8267 19.7273 24.2172C19.7273 24.6077 20.0439 24.9243 20.4344 24.9243Z" stroke="#221F59" stroke-width="2" stroke-linecap="round" stroke-linejoin="round"/>
<path d="M28.2121 24.9243C28.6026 24.9243 28.9192 24.6077 28.9192 24.2172C28.9192 23.8267 28.6026 23.5101 28.2121 23.5101C27.8216 23.5101 27.5051 23.8267 27.5051 24.2172C27.5051 24.6077 27.8216 24.9243 28.2121 24.9243Z" stroke="#221F59" stroke-width="2" stroke-linecap="round" stroke-linejoin="round"/>
<path d="M14.7778 10.0758H17.6061L19.501 19.5435C19.5657 19.869 19.7428 20.1614 20.0013 20.3696C20.2598 20.5777 20.5833 20.6882 20.9151 20.6819H27.7879C28.1197 20.6882 28.4432 20.5777 28.7017 20.3696C28.9603 20.1614 29.1374 19.869 29.202 19.5435L30.3333 13.6112H18.3131" stroke="#221F59" stroke-width="2" stroke-linecap="round" stroke-linejoin="round"/>
<ellipse cx="5.44444" cy="17.8889" rx="5.44444" ry="5.44444" fill="#EB5757"/>
<path d="M7.23286 19.0608C7.23286 19.6145 7.0102 20.0701 6.56489 20.4275C6.12251 20.782 5.55854 20.9592 4.873 20.9592C4.46577 20.9592 4.13911 20.927 3.89302 20.8625L3.98091 20.1331C4.23286 20.218 4.54487 20.2605 4.91694 20.2605C5.35932 20.2605 5.71235 20.1492 5.97602 19.9265C6.23091 19.7126 6.35835 19.4387 6.35835 19.1047C6.35835 18.7825 6.22505 18.5276 5.95845 18.3401C5.68012 18.1438 5.28608 18.0457 4.77632 18.0457C4.63276 18.0457 4.44673 18.0574 4.21821 18.0808V17.426C5.49555 17.4583 6.13423 17.0833 6.13423 16.301C6.13423 15.7122 5.80171 15.4177 5.13667 15.4177C4.7646 15.4177 4.41303 15.5071 4.08198 15.6858L4.01167 14.9958C4.41596 14.8201 4.85102 14.7322 5.31684 14.7322C5.86177 14.7322 6.28364 14.8699 6.58247 15.1453C6.85493 15.3972 6.99116 15.7312 6.99116 16.1472C6.99116 16.8679 6.65132 17.3499 5.97163 17.593L5.96284 17.615C6.3437 17.697 6.64839 17.864 6.8769 18.116C7.11421 18.3796 7.23286 18.6946 7.23286 19.0608Z" fill="white"/>
</svg>
