<svg width="21" height="19" viewBox="0 0 21 19" fill="none" xmlns="http://www.w3.org/2000/svg">
<path d="M11.4317 10.9756L11.4317 10.9756L10.7894 11.6257C10.5244 11.8939 10.1642 11.9662 9.84909 11.9257C9.5326 11.885 9.22175 11.7297 8.97964 11.4846L11.4317 10.9756ZM11.4317 10.9756C12.0194 10.3808 13.1051 10.384 13.858 11.146L13.858 11.1461L15.7449 13.0558C16.4781 13.7979 16.5311 14.905 15.9133 15.5301L15.9133 15.5301L14.5051 16.9553L14.8608 17.3067L14.5051 16.9553C13.4075 18.0662 11.5527 18.1044 10.039 17.0255C8.73817 16.098 6.78057 14.3131 5.02553 12.5717C4.15148 11.7045 3.3348 10.8552 2.68365 10.1389C2.02333 9.41249 1.55794 8.84955 1.36414 8.54525L1.36412 8.54521C0.439349 7.09339 0.62625 5.31669 1.82512 4.1033C1.82513 4.10329 1.82513 4.10329 1.82513 4.10329L3.23335 2.67809L3.23336 2.67808C3.82108 2.08324 4.90676 2.08652 5.65963 2.84847L7.5466 4.75829C7.5466 4.75829 7.5466 4.75829 7.54661 4.7583C8.2798 5.50044 8.33275 6.60739 7.71498 7.23258L7.71496 7.2326L7.07263 7.88272C7.07262 7.88274 7.07261 7.88275 7.0726 7.88276C6.60527 8.35571 6.69083 9.16816 7.21203 9.69564C7.21203 9.69565 7.21203 9.69565 7.21204 9.69565L8.97962 11.4846L11.4317 10.9756Z" fill="#F4941C" stroke="#1C1C1C"/>
<path d="M11.5161 2.87745C11.8317 2.93945 12.1376 2.73278 12.1992 2.41607C12.2669 2.06864 12.5706 1.81647 12.9213 1.81647C13.3167 1.81647 13.6402 2.13368 13.6567 2.52985L13.6406 2.65726C13.5761 2.91476 13.4242 3.21721 13.1886 3.55667C11.3496 6.20656 11.1068 6.18194 11.2546 6.66337C11.3129 6.85322 11.4562 6.99901 11.6477 7.06339C11.8815 7.14196 13.6344 7.1203 14.4718 7.11376C14.7933 7.11123 15.052 6.84757 15.0495 6.52494C15.0469 6.20227 14.7837 5.94461 14.4627 5.94524C13.9336 5.94941 13.3722 5.95104 12.9103 5.94976C13.1971 5.56325 13.5987 5.01058 14.1442 4.22448C14.4417 3.79578 14.8218 3.1129 14.8218 2.56167C14.8218 1.50642 13.9693 0.647949 12.9213 0.647949C12.0149 0.647949 11.2305 1.2973 11.0563 2.19195C10.9947 2.50862 11.2005 2.81555 11.5161 2.87745Z" fill="black"/>
<path d="M19.5693 4.39438H19.479C19.4864 3.11891 19.4903 1.74901 19.4746 1.55979C19.4018 0.684958 18.4525 0.309512 17.8453 1.05639C17.5452 1.42553 16.1563 3.93566 15.7377 4.69621C15.5238 5.08494 15.8045 5.5629 16.2474 5.5629H18.3066C18.3041 5.90843 18.3014 6.23987 18.2989 6.53873C18.2961 6.8614 18.5545 7.12525 18.8761 7.12802C19.1855 7.13483 19.4605 6.87955 19.4633 6.54886C19.4649 6.36513 19.4679 6.00698 19.4712 5.5629H19.5693C19.8909 5.5629 20.1515 5.30131 20.1515 4.97864C20.1515 4.65598 19.8908 4.39438 19.5693 4.39438ZM18.3142 4.39438H17.2372C17.6402 3.67165 18.0335 2.97826 18.3212 2.48623C18.3212 2.99602 18.3184 3.6824 18.3142 4.39438Z" fill="black"/>
</svg>
