<svg width="29" height="29" viewBox="0 0 29 29" fill="none" xmlns="http://www.w3.org/2000/svg">
<rect width="29" height="29" rx="2" fill="#EB5757"/>
<path d="M8.25 10.5H9.75H21.75" stroke="white" stroke-linecap="round" stroke-linejoin="round"/>
<path d="M12 10.5V9C12 8.60218 12.158 8.22064 12.4393 7.93934C12.7206 7.65804 13.1022 7.5 13.5 7.5H16.5C16.8978 7.5 17.2794 7.65804 17.5607 7.93934C17.842 8.22064 18 8.60218 18 9V10.5M20.25 10.5V21C20.25 21.3978 20.092 21.7794 19.8107 22.0607C19.5294 22.342 19.1478 22.5 18.75 22.5H11.25C10.8522 22.5 10.4706 22.342 10.1893 22.0607C9.90804 21.7794 9.75 21.3978 9.75 21V10.5H20.25Z" stroke="white" stroke-linecap="round" stroke-linejoin="round"/>
</svg>
