<svg width="29" height="29" viewBox="0 0 29 29" fill="none" xmlns="http://www.w3.org/2000/svg">
<rect width="29" height="29" rx="2" fill="#221F59"/>
<path d="M14.3333 8.8335H9.66659C9.31296 8.8335 8.97382 8.98275 8.72378 9.24843C8.47373 9.5141 8.33325 9.87444 8.33325 10.2502V20.1668C8.33325 20.5426 8.47373 20.9029 8.72378 21.1686C8.97382 21.4342 9.31296 21.5835 9.66659 21.5835H18.9999C19.3535 21.5835 19.6927 21.4342 19.9427 21.1686C20.1928 20.9029 20.3333 20.5426 20.3333 20.1668V15.2085" stroke="white" stroke-linecap="round" stroke-linejoin="round"/>
<path d="M19.3333 7.77067C19.5985 7.48888 19.9582 7.33057 20.3333 7.33057C20.7083 7.33057 21.068 7.48888 21.3333 7.77067C21.5985 8.05246 21.7475 8.43465 21.7475 8.83317C21.7475 9.23168 21.5985 9.61388 21.3333 9.89567L14.9999 16.6248L12.3333 17.3332L12.9999 14.4998L19.3333 7.77067Z" stroke="white" stroke-linecap="round" stroke-linejoin="round"/>
</svg>
