<svg width="21" height="27" viewBox="0 0 21 27" fill="none" xmlns="http://www.w3.org/2000/svg">
<path d="M18.5217 7.64145L18.5216 7.64003C18.4714 6.975 17.9152 6.46094 17.2708 6.46094H15.56V9.27964C15.56 9.9606 15.0139 10.5233 14.326 10.5233C13.6387 10.5233 13.0919 9.96081 13.0919 9.27964V6.46094H7.33902V9.27964C7.33902 9.96081 6.79222 10.5233 6.10499 10.5233C5.41706 10.5233 4.87097 9.9606 4.87097 9.27964V6.46094H3.16012C2.5154 6.46094 1.95943 6.97536 1.90932 7.63812L1.90922 7.63947L1.90922 7.63947L0.7897 21.9307C0.789685 21.9309 0.789669 21.9311 0.789653 21.9313C0.713582 22.9392 1.05935 23.9422 1.7352 24.6814C2.41111 25.4205 3.36884 25.8439 4.36002 25.8439H16.071C17.0622 25.8439 18.0199 25.4205 18.6958 24.6813C19.3714 23.9424 19.7173 22.9397 19.6409 21.93L18.5217 7.64145ZM18.5217 7.64145L19.6408 21.9288L18.5217 7.64145ZM9.20693 16.1715L9.55827 16.5273L10.8458 15.2229L12.4846 13.5625C12.7709 13.2725 13.2358 13.2725 13.5225 13.5625L9.20693 16.1715ZM9.20693 16.1715L10.4899 14.8716L12.1287 13.2113C12.611 12.7228 13.3958 12.7232 13.8781 13.211L13.8784 13.2113C14.3573 13.6966 14.3573 14.4805 13.8783 14.9658L10.082 18.812C9.84184 19.0553 9.52451 19.1788 9.20695 19.1788C8.88933 19.1788 8.57205 19.0552 8.33192 18.812L6.55268 17.0094C6.07373 16.5241 6.07372 15.7406 6.55268 15.2553C7.03505 14.7666 7.82033 14.7662 8.3026 15.2556L9.20693 16.1715Z" fill="#F4941C" stroke="#1C1C1C"/>
<path d="M10.2166 0.951416C7.54522 0.951416 5.37207 3.1536 5.37207 5.86001V5.96063H6.84013V5.86001C6.84013 3.97359 8.35464 2.4387 10.2166 2.4387C12.0786 2.4387 13.5931 3.97359 13.5931 5.86001V5.96063H15.0611V5.86001C15.061 3.1536 12.8879 0.951416 10.2166 0.951416Z" fill="#1C1C1C"/>
<rect x="4.69629" y="11.9915" width="11.04" height="9.936" fill="#F4941C"/>
<path d="M11.9025 13.3946L10.4172 14.8799L8.93191 13.3946C8.45456 12.9173 7.68055 12.9173 7.2032 13.3946C6.72586 13.872 6.72586 14.646 7.2032 15.1233L8.68852 16.6086L7.2032 18.094C6.72586 18.5713 6.72586 19.3453 7.2032 19.8227C7.68055 20.3 8.45456 20.3 8.93191 19.8227L10.4172 18.3373L11.9025 19.8227C12.3799 20.3 13.1539 20.3 13.6312 19.8227C14.1086 19.3453 14.1086 18.5713 13.6312 18.094L12.1459 16.6086L13.6312 15.1233C14.1086 14.646 14.1086 13.872 13.6312 13.3946C13.1539 12.9173 12.3799 12.9173 11.9025 13.3946Z" fill="white" stroke="#1C1C1C"/>
</svg>
