<svg width="23" height="40" viewBox="0 0 23 40" fill="none" xmlns="http://www.w3.org/2000/svg">
<path d="M7.02212 11.5292V27.2458C7.02212 29.2847 8.41915 31.0035 10.3158 31.5155C4.52414 30.8938 0 25.7007 0 19.3921C0 13.0744 4.52413 7.88124 10.325 7.25952C8.41915 7.77152 7.02212 9.49038 7.02212 11.5292Z" fill="#221F59"/>
<path d="M22.9998 19.3921C22.9998 25.7007 18.4757 30.8938 12.6841 31.5247C14.5807 31.0127 15.9777 29.2938 15.9777 27.2549V11.5292C15.9777 10.3041 15.4781 9.19781 14.6639 8.40238C14.1181 7.86295 13.4335 7.46066 12.6748 7.25952C18.4757 7.88124 22.9998 13.0744 22.9998 19.3921Z" fill="#221F59"/>
<path d="M14.8215 5.10171C16.2471 5.10171 17.4027 3.95966 17.4027 2.55086C17.4027 1.14206 16.2471 0 14.8215 0C13.3959 0 12.2402 1.14206 12.2402 2.55086C12.2402 3.95966 13.3959 5.10171 14.8215 5.10171Z" fill="#221F59"/>
<path d="M8.0212 5.10171C9.44679 5.10171 10.6025 3.95966 10.6025 2.55086C10.6025 1.14206 9.44679 0 8.0212 0C6.59561 0 5.43994 1.14206 5.43994 2.55086C5.43994 3.95966 6.59561 5.10171 8.0212 5.10171Z" fill="#221F59"/>
<path d="M2.28501 32.4937C2.28501 32.4937 2.7476 37.3394 6.49458 37.3394C6.49458 37.3394 8.33569 37.5679 11.361 35.5199C13.4982 34.0754 15.7741 33.4445 16.9214 33.2068C17.7448 33.0331 18.5959 33.0971 19.3638 33.4354C20.2243 33.8194 21.1217 34.5965 21.279 36.2057C21.5843 39.4239 18.7902 39.8354 18.7902 39.8354C18.7902 39.8354 20.5943 38.5188 19.6969 37.2479C19.2806 36.6628 18.5127 36.4159 17.8095 36.5988C17.0787 36.7908 15.8944 37.2662 14.1181 38.4274C10.6764 40.6948 7.34575 39.8262 7.34575 39.8262C7.34575 39.8262 1.9797 39.1131 2.28501 32.4937Z" fill="#221F59"/>
</svg>
