<svg width="23" height="23" viewBox="0 0 23 23" fill="none" xmlns="http://www.w3.org/2000/svg">
<circle cx="11.5" cy="11.5" r="11.5" fill="#ECECEC"/>
<path d="M16.9036 7.79385C16.5914 7.48347 16.2207 7.23725 15.8126 7.06927C15.4046 6.90128 14.9673 6.81482 14.5257 6.81482C14.084 6.81482 13.6467 6.90128 13.2387 7.06927C12.8307 7.23725 12.46 7.48347 12.1478 7.79385L11.4998 8.4377L10.8518 7.79385C10.2212 7.16719 9.36583 6.81514 8.47394 6.81514C7.58206 6.81514 6.7267 7.16719 6.09604 7.79385C5.46538 8.4205 5.11108 9.27043 5.11108 10.1566C5.11108 11.0429 5.46538 11.8928 6.09604 12.5194L6.74401 13.1633L11.4998 17.8889L16.2556 13.1633L16.9036 12.5194C17.2159 12.2092 17.4637 11.8409 17.6328 11.4354C17.8018 11.03 17.8889 10.5955 17.8889 10.1566C17.8889 9.71781 17.8018 9.28326 17.6328 8.87785C17.4637 8.47243 17.2159 8.10408 16.9036 7.79385V7.79385Z" fill="#C4C4C4"/>
</svg>
