<svg width="13" height="12" viewBox="0 0 13 12" fill="none" xmlns="http://www.w3.org/2000/svg">
<path d="M11.9036 1.79385C11.5914 1.48347 11.2207 1.23725 10.8126 1.06927C10.4046 0.901282 9.96732 0.814819 9.52567 0.814819C9.08403 0.814819 8.64671 0.901282 8.2387 1.06927C7.83069 1.23725 7.45999 1.48347 7.14777 1.79385L6.49981 2.4377L5.85185 1.79385C5.22119 1.16719 4.36583 0.815144 3.47394 0.815144C2.58206 0.815144 1.7267 1.16719 1.09604 1.79385C0.465384 2.4205 0.111084 3.27043 0.111084 4.15665C0.111084 5.04287 0.465384 5.89279 1.09604 6.51945L1.74401 7.16329L6.49981 11.8889L11.2556 7.16329L11.9036 6.51945C12.2159 6.20921 12.4637 5.84086 12.6328 5.43545C12.8018 5.03003 12.8889 4.59549 12.8889 4.15665C12.8889 3.71781 12.8018 3.28326 12.6328 2.87785C12.4637 2.47243 12.2159 2.10408 11.9036 1.79385Z" fill="#C4C4C4"/>
</svg>
