<svg width="22" height="19" viewBox="0 0 22 19" fill="none" xmlns="http://www.w3.org/2000/svg">
<path d="M10.599 2.87354L11 3.41175L11.401 2.87356C11.7871 2.35523 12.2219 1.9154 12.6977 1.55812C13.6358 0.854006 14.6936 0.5 15.8543 0.5C17.4204 0.5 18.8506 1.10711 19.8922 2.20373C20.9225 3.28859 21.5 4.78113 21.5 6.41795C21.5 8.076 20.8706 9.61836 19.4379 11.2964L19.4379 11.2964C18.1405 12.8161 16.2654 14.3694 14.0377 16.2121L14.0377 16.2122L14.0185 16.228C13.2663 16.8504 12.4126 17.5568 11.5266 18.3089L11.5263 18.3091C11.3832 18.4308 11.1963 18.5 11 18.5C10.8036 18.5 10.6169 18.4309 10.4734 18.3089L10.4731 18.3086C9.58063 17.5511 8.72143 16.8403 7.96551 16.2149L7.9628 16.2126L7.96278 16.2126C5.73481 14.3696 3.85965 12.8161 2.56227 11.2966C1.12953 9.61833 0.5 8.07596 0.5 6.41811C0.5 4.78114 1.07752 3.28859 2.10764 2.20373C3.14921 1.10712 4.57961 0.5 6.14571 0.5C7.30642 0.5 8.36427 0.854026 9.30215 1.55815L9.30217 1.55817C9.7781 1.91543 10.213 2.3554 10.599 2.87354Z" fill="#F4941C" stroke="#1C1C1C"/>
</svg>
