<svg width="24" height="24" viewBox="0 0 24 24" fill="none" xmlns="http://www.w3.org/2000/svg">
<path d="M22.6382 11.9607C22.6382 17.9647 17.7709 22.832 11.7668 22.832C5.76276 22.832 0.895508 17.9647 0.895508 11.9607C0.895508 5.95661 5.76276 1.08936 11.7668 1.08936C17.7709 1.08936 22.6382 5.95661 22.6382 11.9607Z" fill="#F4941C" stroke="black"/>
<path d="M7.22607 8.88107C7.22607 8.30598 7.41078 7.72317 7.7802 7.13285C8.14939 6.54232 8.68829 6.05352 9.39666 5.66601C10.105 5.27872 10.9313 5.08496 11.8758 5.08496C12.7536 5.08496 13.5289 5.24694 14.2008 5.57067C14.8728 5.89463 15.3918 6.33532 15.7582 6.89209C16.1245 7.44931 16.3076 8.05463 16.3076 8.70849C16.3076 9.22334 16.2033 9.6744 15.9943 10.0617C15.7853 10.4492 15.537 10.7835 15.2497 11.0651C14.9619 11.3465 14.446 11.8203 13.7014 12.4863C13.4955 12.6741 13.3305 12.8391 13.2065 12.9813C13.0824 13.1234 12.99 13.2536 12.9293 13.3716C12.8686 13.4897 12.8218 13.6078 12.7885 13.7258C12.7552 13.8439 12.7053 14.0513 12.6389 14.3479C12.5239 14.9777 12.1635 15.2924 11.5582 15.2924C11.2433 15.2924 10.9783 15.1898 10.7635 14.9839C10.5486 14.778 10.4411 14.4722 10.4411 14.0668C10.4411 13.5581 10.5197 13.1176 10.6773 12.7454C10.8344 12.3729 11.0434 12.0463 11.3038 11.7644C11.5639 11.4829 11.9153 11.1485 12.3573 10.761C12.7446 10.4221 13.0246 10.1663 13.1974 9.99372C13.37 9.82115 13.5154 9.62916 13.6335 9.41687C13.7515 9.20524 13.8104 8.97507 13.8104 8.72681C13.8104 8.24264 13.6304 7.83373 13.2702 7.50072C12.9099 7.16794 12.4451 7.00133 11.876 7.00133C11.21 7.00133 10.7196 7.16949 10.4049 7.50514C10.09 7.84123 9.8239 8.33599 9.60587 8.99008C9.39997 9.6744 9.00937 10.0162 8.43429 10.0162C8.0951 10.0162 7.80911 9.89663 7.57607 9.65741C7.34259 9.41842 7.22607 9.15956 7.22607 8.88107Z" fill="#1C1C1C"/>
<path d="M11.5946 16.04C10.8403 16.04 10.229 16.6515 10.229 17.4058C10.229 18.1601 10.8405 18.7714 11.5946 18.7714C12.3486 18.7714 12.9601 18.1599 12.9601 17.4058C12.9601 16.6515 12.3486 16.04 11.5946 16.04Z" fill="#1C1C1C"/>
</svg>
