<svg width="23" height="23" viewBox="0 0 23 23" fill="none" xmlns="http://www.w3.org/2000/svg">
<path d="M8.05033 17.0723C8.05033 18.5939 9.2886 19.8322 10.8102 19.8322H13.3399C13.7218 19.8322 14.0639 19.5967 14.1992 19.2398L20.8689 1.76071C20.9774 1.47822 20.9388 1.16087 20.7677 0.911564C20.5957 0.66226 20.3124 0.513184 20.0097 0.513184H10.8102C9.2886 0.513184 8.05033 1.75145 8.05033 3.27304V17.0723Z" fill="#F4941C"/>
<path d="M13.5701 4.19292V20.7521C13.5701 21.387 14.0852 21.9021 14.7199 21.9021C14.8488 21.9021 14.9684 21.8837 15.088 21.8468L20.6077 20.007C21.0585 19.8505 21.3896 19.4181 21.3896 18.9123V2.35312C21.3896 1.71824 20.8745 1.20312 20.2397 1.20312C20.111 1.20312 19.9914 1.22149 19.8718 1.25838L14.352 3.09817C13.9013 3.25466 13.5701 3.68707 13.5701 4.19292Z" fill="#F4941C"/>
<path d="M15.3064 22.5004L20.8336 20.6578C21.5796 20.4002 22.0801 19.6983 22.0801 18.9118V2.35264C22.0801 1.14099 20.9016 0.220085 19.6541 0.60381L14.1271 2.44647C13.3811 2.70403 12.8806 3.40595 12.8806 4.19244V20.7516C12.8806 21.7663 13.7057 22.5916 14.7204 22.5916C14.9173 22.5916 15.1041 22.5631 15.3064 22.5004ZM20.7001 2.35264V18.9118C20.7001 19.1077 20.5694 19.2898 20.3902 19.3525L14.886 21.1877C14.587 21.2778 14.2605 21.0636 14.2605 20.7516V4.19244C14.2605 3.99653 14.3911 3.81444 14.5705 3.75178L20.0755 1.91754C20.1306 1.90002 20.1822 1.89261 20.2401 1.89261C20.4941 1.89261 20.7001 2.09862 20.7001 2.35264Z" fill="#64B5F6"/>
<path d="M0.69054 10.8619H9.43015C9.81101 10.8619 10.1201 10.5528 10.1201 10.1719C10.1201 9.79104 9.81101 9.48193 9.43015 9.48193H0.69054C0.309678 9.48193 0.000575066 9.79104 0.000575066 10.1719C0.000575066 10.5528 0.309678 10.8619 0.69054 10.8619Z" fill="black"/>
<path d="M4.14028 14.313C4.31698 14.313 4.49352 14.2457 4.62794 14.1106C4.89746 13.841 4.89746 13.404 4.62794 13.1345L1.6656 10.1723L4.62794 7.20999C4.89746 6.94047 4.89746 6.50352 4.62794 6.234C4.35825 5.96432 3.9213 5.96432 3.65178 6.234L0.201952 9.68382C-0.0675654 9.95334 -0.0675654 10.3903 0.201952 10.6598L3.65178 14.1096C3.78704 14.2457 3.96358 14.313 4.14028 14.313Z" fill="black"/>
<path d="M14.7209 22.5911C14.9178 22.5911 15.1046 22.5635 15.2913 22.5055L20.8276 20.661C21.5809 20.3979 22.0806 19.696 22.0806 18.9113V2.35217C22.0806 1.33744 21.2553 0.512207 20.2406 0.512207C20.0439 0.512207 19.857 0.539833 19.6702 0.597779L14.134 2.44229C13.3805 2.70541 12.8811 3.40733 12.8811 4.19196V20.7511C12.8811 21.7659 13.7062 22.5911 14.7209 22.5911ZM20.2406 1.89214C20.4936 1.89214 20.7006 2.09916 20.7006 2.35217V18.9113C20.7006 19.1072 20.5691 19.2893 20.3814 19.3547L14.871 21.1909C14.8314 21.2037 14.7798 21.2112 14.7209 21.2112C14.4679 21.2112 14.261 21.0041 14.261 20.7511V4.19196C14.261 3.99606 14.3926 3.81397 14.5802 3.74861L20.0907 1.91235C20.1303 1.89955 20.1818 1.89214 20.2406 1.89214Z" fill="black"/>
<path d="M8.05046 7.87287C8.43132 7.87287 8.74042 7.56376 8.74042 7.1829V3.04311C8.74042 2.40924 9.25638 1.89311 9.89025 1.89311H20.2397C20.6206 1.89311 20.9297 1.58401 20.9297 1.20315C20.9297 0.822287 20.6206 0.513184 20.2397 0.513184H9.89025C8.49465 0.513184 7.36049 1.64752 7.36049 3.04311V7.1829C7.36049 7.56376 7.66959 7.87287 8.05046 7.87287Z" fill="black"/>
<path d="M9.88988 19.8323H13.5698C13.9507 19.8323 14.2598 19.5232 14.2598 19.1424C14.2598 18.7615 13.9507 18.4524 13.5698 18.4524H9.88988C9.256 18.4524 8.74005 17.9363 8.74005 17.3024V13.1626C8.74005 12.7818 8.43094 12.4727 8.05008 12.4727C7.66922 12.4727 7.36012 12.7818 7.36012 13.1626V17.3024C7.36012 18.698 8.49428 19.8323 9.88988 19.8323Z" fill="black"/>
</svg>
