<svg width="23" height="23" viewBox="0 0 23 23" fill="none" xmlns="http://www.w3.org/2000/svg">
<path d="M14.206 17.0723C14.206 18.5939 12.9678 19.8322 11.4462 19.8322H8.9164C8.53453 19.8322 8.19241 19.5967 8.05714 19.2398L1.38743 1.76071C1.27895 1.47822 1.31752 1.16087 1.48866 0.911564C1.66065 0.66226 1.94398 0.513184 2.24668 0.513184H11.4462C12.9678 0.513184 14.206 1.75145 14.206 3.27304V17.0723Z" fill="#F4941C"/>
<path d="M8.68625 4.19292V20.7521C8.68625 21.387 8.17113 21.9021 7.53642 21.9021C7.40755 21.9021 7.28795 21.8837 7.16836 21.8468L1.64864 20.007C1.19787 19.8505 0.866699 19.4181 0.866699 18.9123V2.35312C0.866699 1.71824 1.38181 1.20312 2.0167 1.20312C2.14539 1.20312 2.26499 1.22149 2.38459 1.25838L7.90431 3.09817C8.35508 3.25466 8.68625 3.68707 8.68625 4.19292V4.19292Z" fill="#F4941C"/>
<path d="M6.94992 22.5004L1.42279 20.6578C0.67673 20.4002 0.17627 19.6983 0.17627 18.9118V2.35264C0.17627 1.14099 1.35473 0.220085 2.60226 0.60381L8.12923 2.44647C8.87528 2.70403 9.37574 3.40595 9.37574 4.19244V20.7516C9.37574 21.7663 8.55068 22.5916 7.53595 22.5916C7.33903 22.5916 7.15222 22.5631 6.94992 22.5004ZM1.5562 2.35264V18.9118C1.5562 19.1077 1.68692 19.2898 1.86614 19.3525L7.37037 21.1877C7.66936 21.2778 7.99581 21.0636 7.99581 20.7516V4.19244C7.99581 3.99653 7.86527 3.81444 7.68587 3.75177L2.18081 1.91754C2.12572 1.90002 2.07418 1.89261 2.01623 1.89261C1.76221 1.89261 1.5562 2.09862 1.5562 2.35264Z" fill="#64B5F6"/>
<path d="M21.5658 10.8619H12.8262C12.4453 10.8619 12.1362 10.5528 12.1362 10.1719C12.1362 9.79104 12.4453 9.48193 12.8262 9.48193H21.5658C21.9467 9.48193 22.2558 9.79104 22.2558 10.1719C22.2558 10.5528 21.9467 10.8619 21.5658 10.8619Z" fill="black"/>
<path d="M18.1161 14.313C17.9394 14.313 17.7628 14.2457 17.6284 14.1106C17.3589 13.841 17.3589 13.404 17.6284 13.1345L20.5907 10.1723L17.6284 7.20999C17.3589 6.94047 17.3589 6.50352 17.6284 6.234C17.8981 5.96432 18.335 5.96432 18.6046 6.234L22.0544 9.68382C22.3239 9.95334 22.3239 10.3903 22.0544 10.6598L18.6046 14.1096C18.4693 14.2457 18.2928 14.313 18.1161 14.313V14.313Z" fill="black"/>
<path d="M7.53546 22.5911C7.33855 22.5911 7.15174 22.5635 6.9651 22.5055L1.4287 20.661C0.675399 20.3979 0.175781 19.696 0.175781 18.9113V2.35217C0.175781 1.33744 1.00101 0.512207 2.01574 0.512207C2.21249 0.512207 2.3993 0.539833 2.58611 0.597779L8.12234 2.44229C8.87581 2.70541 9.37526 3.40733 9.37526 4.19196V20.7511C9.37526 21.7659 8.55019 22.5911 7.53546 22.5911ZM2.01574 1.89214C1.76273 1.89214 1.55571 2.09916 1.55571 2.35217V18.9113C1.55571 19.1072 1.68727 19.2893 1.87492 19.3547L7.38537 21.1909C7.42496 21.2037 7.4765 21.2112 7.53546 21.2112C7.78847 21.2112 7.99533 21.0041 7.99533 20.7511V4.19196C7.99533 3.99606 7.86377 3.81397 7.67612 3.74861L2.16566 1.91235C2.12608 1.89955 2.07453 1.89214 2.01574 1.89214V1.89214Z" fill="black"/>
<path d="M14.2059 7.87287C13.825 7.87287 13.5159 7.56376 13.5159 7.1829V3.04311C13.5159 2.40924 13 1.89311 12.3661 1.89311H2.01662C1.63576 1.89311 1.32666 1.58401 1.32666 1.20315C1.32666 0.822287 1.63576 0.513184 2.01662 0.513184H12.3661C13.7617 0.513184 14.8959 1.64752 14.8959 3.04311V7.1829C14.8959 7.56376 14.5868 7.87287 14.2059 7.87287Z" fill="black"/>
<path d="M12.3665 19.8323H8.68655C8.30568 19.8323 7.99658 19.5232 7.99658 19.1424C7.99658 18.7615 8.30568 18.4524 8.68655 18.4524H12.3665C13.0003 18.4524 13.5163 17.9363 13.5163 17.3024V13.1626C13.5163 12.7818 13.8254 12.4727 14.2063 12.4727C14.5871 12.4727 14.8962 12.7818 14.8962 13.1626V17.3024C14.8962 18.698 13.7621 19.8323 12.3665 19.8323V19.8323Z" fill="black"/>
</svg>
