<svg width="19" height="19" viewBox="0 0 19 19" fill="none" xmlns="http://www.w3.org/2000/svg">
<path d="M5.95833 2H3.58333C3.16341 2 2.76068 2.16681 2.46375 2.46375C2.16681 2.76068 2 3.16341 2 3.58333V5.95833M16.25 5.95833V3.58333C16.25 3.16341 16.0832 2.76068 15.7863 2.46375C15.4893 2.16681 15.0866 2 14.6667 2H12.2917M12.2917 16.25H14.6667C15.0866 16.25 15.4893 16.0832 15.7863 15.7863C16.0832 15.4893 16.25 15.0866 16.25 14.6667V12.2917M2 12.2917V14.6667C2 15.0866 2.16681 15.4893 2.46375 15.7863C2.76068 16.0832 3.16341 16.25 3.58333 16.25H5.95833" stroke="#F4941C" stroke-linecap="round" stroke-linejoin="round"/>
</svg>
