<svg width="24" height="24" viewBox="0 0 24 24" fill="none" xmlns="http://www.w3.org/2000/svg">
<path d="M12.049 0.87207C5.93008 0.87207 0.969727 5.83242 0.969727 11.9513C0.969727 18.0703 5.93008 23.0306 12.049 23.0306C18.1679 23.0306 23.1283 18.0703 23.1283 11.9513C23.1283 5.83242 18.1679 0.87207 12.049 0.87207ZM12.049 21.177C6.95382 21.177 2.82339 17.0465 2.82339 11.9513C2.82339 6.85617 6.95382 2.72573 12.049 2.72573C17.1442 2.72573 21.2746 6.85617 21.2746 11.9513C21.2746 17.0465 17.1442 21.177 12.049 21.177Z" fill="#C4C4C4" stroke="#C4C4C4" stroke-width="0.5"/>
<path d="M12.049 13.305C12.7966 13.305 13.4026 12.6989 13.4026 11.9513C13.4026 11.2037 12.7966 10.5977 12.049 10.5977C11.3014 10.5977 10.6953 11.2037 10.6953 11.9513C10.6953 12.6989 11.3014 13.305 12.049 13.305Z" fill="#C4C4C4"/>
<path d="M16.7868 13.305C17.5344 13.305 18.1404 12.6989 18.1404 11.9513C18.1404 11.2037 17.5344 10.5977 16.7868 10.5977C16.0392 10.5977 15.4331 11.2037 15.4331 11.9513C15.4331 12.6989 16.0392 13.305 16.7868 13.305Z" fill="#C4C4C4"/>
<path d="M7.31118 13.305C8.05878 13.305 8.66484 12.6989 8.66484 11.9513C8.66484 11.2037 8.05878 10.5977 7.31118 10.5977C6.56357 10.5977 5.95752 11.2037 5.95752 11.9513C5.95752 12.6989 6.56357 13.305 7.31118 13.305Z" fill="#C4C4C4"/>
</svg>
