<svg width="21" height="27" viewBox="0 0 21 27" fill="none" xmlns="http://www.w3.org/2000/svg">
<path d="M18.5222 7.56943L18.5221 7.568C18.4719 6.90298 17.9157 6.38892 17.2713 6.38892H15.5605V9.20761C15.5605 9.88857 15.0144 10.4513 14.3264 10.4513C13.6392 10.4513 13.0924 9.88879 13.0924 9.20761V6.38892H7.33951V9.20761C7.33951 9.88879 6.79271 10.4513 6.10548 10.4513C5.41755 10.4513 4.87145 9.88857 4.87145 9.20761V6.38892H3.16061C2.51589 6.38892 1.95992 6.90334 1.90981 7.5661L1.90971 7.56745L1.9097 7.56745L0.790189 21.8586C0.790173 21.8588 0.790157 21.859 0.790142 21.8593C0.71407 22.8672 1.05984 23.8702 1.73569 24.6093C2.4116 25.3485 3.36933 25.7719 4.36051 25.7719H16.0715C17.0627 25.7719 18.0204 25.3485 18.6963 24.6093C19.3719 23.8704 19.7177 22.8676 19.6413 21.858L18.5222 7.56943ZM18.5222 7.56943L19.6413 21.8568L18.5222 7.56943ZM9.20742 16.0995L9.55876 16.4553L12.4851 13.4905C12.7714 13.2005 13.2362 13.2005 13.523 13.4905L9.20742 16.0995ZM9.20742 16.0995L12.1292 13.1393C12.6114 12.6507 13.3963 12.6512 13.8786 13.139L13.8789 13.1393C14.3578 13.6246 14.3578 14.4085 13.8788 14.8938L10.0825 18.7399C9.84233 18.9832 9.52499 19.1068 9.20744 19.1068C8.88982 19.1068 8.57254 18.9832 8.33241 18.7399L6.55317 16.9373C6.07421 16.4521 6.07421 15.6686 6.55317 15.1833C7.03553 14.6946 7.82081 14.6942 8.30309 15.1836L9.20742 16.0995Z" fill="#F4941C" stroke="#1C1C1C"/>
<path d="M10.2166 0.879639C7.54522 0.879639 5.37207 3.08182 5.37207 5.78823V5.88885H6.84013V5.78823C6.84013 3.90181 8.35464 2.36692 10.2166 2.36692C12.0786 2.36692 13.5931 3.90181 13.5931 5.78823V5.88885H15.0611V5.78823C15.061 3.08182 12.8879 0.879639 10.2166 0.879639Z" fill="#1C1C1C"/>
</svg>
