<svg width="21" height="24" viewBox="0 0 21 24" fill="none" xmlns="http://www.w3.org/2000/svg">
<path d="M11.9251 4.83167C11.6629 4.83167 11.4501 4.62633 11.4501 4.37333V2.83333C11.4501 2.32825 11.0235 1.91667 10.5001 1.91667C9.97665 1.91667 9.5501 2.32825 9.5501 2.83333V4.37333C9.5501 4.62633 9.3373 4.83167 9.0751 4.83167C8.8129 4.83167 8.6001 4.62725 8.6001 4.37333V2.83333C8.6001 1.82225 9.45225 1 10.5001 1C11.5479 1 12.4001 1.82225 12.4001 2.83333V4.37333C12.4001 4.62725 12.1873 4.83167 11.9251 4.83167Z" fill="#1A1A1A" stroke="#1A1A1A" stroke-width="0.3"/>
<path d="M10.4998 23C8.66631 23 7.1748 21.5609 7.1748 19.7917C7.1748 19.5387 7.3876 19.3334 7.6498 19.3334C7.912 19.3334 8.1248 19.5387 8.1248 19.7917C8.1248 21.0549 9.19071 22.0834 10.4998 22.0834C11.8089 22.0834 12.8748 21.0549 12.8748 19.7917C12.8748 19.5387 13.0876 19.3334 13.3498 19.3334C13.612 19.3334 13.8248 19.5387 13.8248 19.7917C13.8248 21.5609 12.3333 23 10.4998 23Z" fill="#1A1A1A" stroke="#1A1A1A" stroke-width="0.3"/>
<path d="M18.575 20.25H2.425C1.63935 20.25 1 19.6331 1 18.875C1 18.4726 1.18145 18.0922 1.49875 17.83C2.99595 16.609 3.85 14.8325 3.85 12.9515V10.1667C3.85 6.62833 6.833 3.75 10.5 3.75C14.167 3.75 17.15 6.62833 17.15 10.1667V12.9515C17.15 14.8334 18.004 16.609 19.4936 17.8236C19.8185 18.0922 20 18.4726 20 18.875C20 19.6331 19.3616 20.25 18.575 20.25ZM10.5 4.66667C7.35645 4.66667 4.8 7.13342 4.8 10.1667V12.9515C4.8 15.1038 3.8234 17.1342 2.12005 18.5239C2.0108 18.6137 1.95 18.7412 1.95 18.875C1.95 19.128 2.1628 19.3333 2.425 19.3333H18.575C18.8372 19.3333 19.05 19.128 19.05 18.875C19.05 18.7412 18.9892 18.6137 18.8838 18.5267C17.1776 17.1342 16.2 15.1029 16.2 12.9515V10.1667C16.2 7.13342 13.6435 4.66667 10.5 4.66667Z" fill="#1A1A1A" stroke="#1A1A1A" stroke-width="0.3"/>
</svg>
