<svg width="21" height="26" viewBox="0 0 21 26" fill="none" xmlns="http://www.w3.org/2000/svg">
<path d="M13.7659 10.444L13.7659 10.444C12.7437 11.4866 11.507 12.008 10.0665 12.008C8.62656 12.008 7.38998 11.4865 6.36745 10.4441C5.34468 9.40132 4.82959 8.13578 4.82959 6.65784C4.82959 5.18028 5.34468 3.91471 6.36732 2.8719C7.38961 1.82945 8.62597 1.30811 10.0665 1.30811C11.5067 1.30811 12.7433 1.82942 13.7657 2.87168C14.7886 3.91487 15.3035 5.18045 15.3035 6.65784C15.3035 8.13582 14.7886 9.40119 13.7659 10.444Z" fill="#F4941C" stroke="#1C1C1C"/>
<path d="M19.6053 19.5197L19.6053 19.5193C19.5745 19.0664 19.5119 18.5679 19.4187 18.0372C19.3253 17.5067 19.2057 17.0089 19.0639 16.5574L19.0639 16.5573C18.9205 16.1004 18.7249 15.6474 18.4822 15.212C18.2344 14.7674 17.9473 14.3877 17.6318 14.0799L17.6317 14.0799C17.3123 13.7682 16.9155 13.5119 16.4461 13.3222L19.6053 19.5197ZM19.6053 19.5197C19.6363 19.9701 19.6521 20.4414 19.6523 20.92L19.6053 19.5197ZM7.14985 14.0023L7.14951 14.0021C6.78715 13.766 6.45877 13.5502 6.17359 13.3607L6.17349 13.3606C5.72274 13.061 5.59823 13.041 5.51822 13.041C4.95668 13.041 4.44239 13.1379 3.98548 13.3224L3.9854 13.3225C3.51651 13.5118 3.11964 13.7679 2.79986 14.0799L7.14985 14.0023ZM7.14985 14.0023C7.51041 14.2368 7.97691 14.443 8.52184 14.6225L7.14985 14.0023ZM1.94972 15.2118L1.94969 15.2119C1.70711 15.6473 1.5115 16.1002 1.36795 16.5574L1.94972 15.2118ZM1.94972 15.2118C2.19701 14.7678 2.48417 14.3881 2.79976 14.08L1.94972 15.2118ZM0.826739 19.5197L0.826731 19.5199C0.795916 19.9728 0.780273 20.4438 0.780273 20.9202C0.780273 22.0773 1.13703 22.9657 1.80328 23.6128C2.46527 24.2551 3.35169 24.5973 4.48186 24.5973H15.9507C17.0809 24.5973 17.967 24.2552 18.6292 23.6126L18.6293 23.6126C19.2954 22.9662 19.6522 22.0779 19.6523 20.9202L0.826739 19.5197ZM0.826739 19.5197C0.85752 19.0658 0.920109 18.5671 1.0133 18.0373L0.826739 19.5197ZM13.2819 14.0023L13.2825 14.0019L11.9094 14.6224C12.4548 14.4428 12.9212 14.2367 13.2819 14.0023ZM14.9132 13.0412C15.4746 13.0412 15.989 13.1379 16.4461 13.3222L13.9808 12.9444L14.2574 13.361C14.2575 13.3609 14.2576 13.3608 14.2577 13.3608C14.709 13.0612 14.8332 13.0412 14.9132 13.0412ZM10.2157 14.9009C10.782 14.9009 11.3519 14.8064 11.9092 14.6225L8.52194 14.6225C9.07964 14.8063 9.64937 14.9009 10.2157 14.9009ZM1.01331 18.0373C1.10667 17.5069 1.22628 17.0092 1.3679 16.5576L1.01331 18.0373Z" fill="#F4941C" stroke="#1C1C1C"/>
</svg>
