<svg width="45" height="45" viewBox="0 0 45 45" fill="none" xmlns="http://www.w3.org/2000/svg">
<rect width="45" height="45" rx="5" fill="#F7F7F7"/>
<path d="M14.3333 12.5999H10.8667C10.3883 12.5999 10 12.9881 10 13.4665V16.9332C10 17.4116 10.3883 17.7999 10.8667 17.7999C11.3451 17.7999 11.7333 17.4116 11.7333 16.9332V14.3332H14.3333C14.8117 14.3332 15.2 13.9449 15.2 13.4665C15.2 12.9881 14.8117 12.5999 14.3333 12.5999Z" fill="#221F59"/>
<path d="M35.1334 28.2002C34.655 28.2002 34.2667 28.5885 34.2667 29.0669V31.6669H31.6667C31.1883 31.6669 30.8 32.0551 30.8 32.5335C30.8 33.0119 31.1883 33.4002 31.6667 33.4002H35.1334C35.6118 33.4002 36.0001 33.0119 36.0001 32.5335V29.0669C36.0001 28.5885 35.6118 28.2002 35.1334 28.2002Z" fill="#221F59"/>
<path d="M35.1334 12.5999H31.6667C31.1883 12.5999 30.8 12.9881 30.8 13.4665C30.8 13.9449 31.1883 14.3332 31.6667 14.3332H34.2667V16.9332C34.2667 17.4116 34.655 17.7999 35.1334 17.7999C35.6118 17.7999 36.0001 17.4116 36.0001 16.9332V13.4665C36.0001 12.9881 35.6118 12.5999 35.1334 12.5999Z" fill="#221F59"/>
<path d="M14.3333 31.6669H11.7333V29.0669C11.7333 28.5885 11.3451 28.2002 10.8667 28.2002C10.3883 28.2002 10 28.5885 10 29.0669V32.5335C10 33.0119 10.3883 33.4002 10.8667 33.4002H14.3333C14.8117 33.4002 15.2 33.0119 15.2 32.5335C15.2 32.0551 14.8117 31.6669 14.3333 31.6669Z" fill="#221F59"/>
<path d="M15.1999 16.0667H13.4666V29.9333H15.1999V16.0667Z" fill="#221F59"/>
<path d="M18.6667 16.0667H16.9333V26.4667H18.6667V16.0667Z" fill="#221F59"/>
<path d="M22.1332 16.0667H20.3999V26.4667H22.1332V16.0667Z" fill="#221F59"/>
<path d="M25.6 16.0667H23.8667V29.9333H25.6V16.0667Z" fill="#221F59"/>
<path d="M29.0667 16.0667H27.3334V26.4667H29.0667V16.0667Z" fill="#221F59"/>
<path d="M32.5334 16.0667H30.8V29.9333H32.5334V16.0667Z" fill="#221F59"/>
<path d="M18.6667 28.2002H16.9333V29.9335H18.6667V28.2002Z" fill="#221F59"/>
<path d="M22.1332 28.2002H20.3999V29.9335H22.1332V28.2002Z" fill="#221F59"/>
<path d="M29.0667 28.2002H27.3334V29.9335H29.0667V28.2002Z" fill="#221F59"/>
</svg>
