<svg width="18" height="18" viewBox="0 0 18 18" fill="none" xmlns="http://www.w3.org/2000/svg">
<path d="M7.9266 0C3.55599 0 0 3.55599 0 7.9266C0 12.2975 3.55599 15.8532 7.9266 15.8532C12.2975 15.8532 15.8532 12.2975 15.8532 7.9266C15.8532 3.55599 12.2975 0 7.9266 0ZM7.9266 14.3899C4.36281 14.3899 1.46337 11.4904 1.46337 7.92663C1.46337 4.36284 4.36281 1.46337 7.9266 1.46337C11.4904 1.46337 14.3898 4.3628 14.3898 7.9266C14.3898 11.4904 11.4904 14.3899 7.9266 14.3899Z" fill="#4C4C4C"/>
<path d="M17.7839 16.7506L13.5889 12.5556C13.303 12.2697 12.8401 12.2697 12.5542 12.5556C12.2684 12.8412 12.2684 13.3046 12.5542 13.5902L16.7492 17.7852C16.8922 17.9281 17.0793 17.9996 17.2666 17.9996C17.4536 17.9996 17.6409 17.9281 17.7839 17.7852C18.0697 17.4996 18.0697 17.0362 17.7839 16.7506Z" fill="#4C4C4C"/>
</svg>
