<svg width="23" height="23" viewBox="0 0 23 23" fill="none" xmlns="http://www.w3.org/2000/svg">
<g clip-path="url(#clip0_680_4894)">
<path d="M11.1892 0.389166C5.11804 0.390411 0.197441 5.31312 0.198729 11.3843C0.199159 13.4865 0.802431 15.5445 1.93692 17.3144L0.226641 21.7518C0.135564 21.9878 0.253049 22.253 0.489051 22.344C0.541824 22.3644 0.597862 22.3748 0.654415 22.3747C0.706888 22.375 0.758975 22.366 0.808314 22.3482L5.38866 20.713C10.542 23.9226 17.3216 22.3468 20.5311 17.1934C23.7407 12.0399 22.1649 5.26043 17.0115 2.05088C15.2646 0.962852 13.2473 0.387105 11.1892 0.389166Z" fill="#F4941C"/>
<path d="M15.4265 12.8454C15.4265 12.8454 14.5249 12.4038 13.9604 12.1094C13.3215 11.7804 12.5708 12.3964 12.2176 12.7468C11.6677 12.5355 11.1656 12.2168 10.7404 11.8091C10.3327 11.384 10.0139 10.8818 9.80276 10.332C10.1531 9.97796 10.7676 9.22798 10.4401 8.58915C10.1494 8.02391 9.70416 7.12306 9.70416 7.12233C9.64168 6.99834 9.51476 6.92006 9.3759 6.91992H8.63989C7.56806 7.10505 6.78875 8.04026 6.79992 9.12789C6.79992 10.2834 8.18284 12.5032 9.11536 13.4364C10.0479 14.3696 12.2676 15.7518 13.4238 15.7518C14.5115 15.763 15.4467 14.9836 15.6318 13.9118V13.1759C15.6319 13.0355 15.5523 12.9074 15.4265 12.8454Z" fill="#1C1C1C"/>
<path d="M0.655168 22.3744C0.402205 22.3747 0.196906 22.1698 0.196648 21.9169C0.196605 21.8603 0.206997 21.8042 0.227351 21.7515L1.93767 17.315C-1.36454 12.1903 0.112871 5.35903 5.23753 2.05681C10.3622 -1.2454 17.1935 0.232012 20.4957 5.35667C23.7979 10.4813 22.3205 17.3127 17.1958 20.6148C13.6106 22.9251 9.01518 22.9632 5.39216 20.7126L0.811815 22.3478C0.761575 22.3658 0.708543 22.3747 0.655168 22.3744ZM5.44528 19.7481C5.53343 19.7484 5.61966 19.7742 5.69352 19.8223C10.3472 22.8401 16.5661 21.5141 19.584 16.8604C22.6018 12.2068 21.2758 5.98785 16.6222 2.96999C11.9685 -0.0478748 5.74955 1.27822 2.73173 5.93182C0.542234 9.30806 0.579464 13.6652 2.82624 17.0035C2.90981 17.1275 2.92758 17.2845 2.87386 17.424L1.44021 21.1497L5.28768 19.7756C5.33822 19.7572 5.39156 19.7479 5.44528 19.7481Z" fill="#1C1C1C"/>
</g>
<defs>
<clipPath id="clip0_680_4894">
<rect width="22.08" height="22.08" fill="white" transform="translate(0.175781 0.295898)"/>
</clipPath>
</defs>
</svg>
